<svg width="121" height="62" viewBox="0 0 121 62" fill="none" xmlns="http://www.w3.org/2000/svg">
<path d="M7.05398 22.2876C5.76847 22.2876 4.6179 21.9574 3.60227 21.2969C2.58665 20.6364 1.78409 19.6776 1.1946 18.4205C0.605114 17.1634 0.310369 15.6364 0.310369 13.8395C0.310369 12.0213 0.608665 10.4872 1.20526 9.23722C1.80895 7.98011 2.62216 7.03196 3.64489 6.39276C4.66761 5.74645 5.80753 5.4233 7.06463 5.4233C8.02344 5.4233 8.81179 5.58665 9.42969 5.91335C10.0476 6.23295 10.5376 6.62003 10.8999 7.07457C11.2621 7.52202 11.5426 7.9446 11.7415 8.34233H11.9013V0.181818H15.7685V22H11.9759V19.4219H11.7415C11.5426 19.8196 11.255 20.2422 10.8786 20.6896C10.5021 21.13 10.005 21.5064 9.38707 21.8189C8.76918 22.1314 7.99148 22.2876 7.05398 22.2876ZM8.12997 19.1236C8.94673 19.1236 9.64276 18.9034 10.218 18.4631C10.7933 18.0156 11.2301 17.3942 11.5284 16.5987C11.8267 15.8033 11.9759 14.8764 11.9759 13.8182C11.9759 12.7599 11.8267 11.8402 11.5284 11.0589C11.2372 10.2777 10.804 9.67045 10.2287 9.23722C9.66051 8.80398 8.96094 8.58736 8.12997 8.58736C7.2706 8.58736 6.55327 8.81108 5.97798 9.25852C5.4027 9.70597 4.96946 10.3239 4.67827 11.1122C4.38707 11.9006 4.24148 12.8026 4.24148 13.8182C4.24148 14.8409 4.38707 15.7536 4.67827 16.5561C4.97656 17.3516 5.41335 17.9801 5.98864 18.4418C6.57102 18.8963 7.2848 19.1236 8.12997 19.1236ZM19.878 22V5.63636H23.6174V8.36364H23.7878C24.0861 7.41903 24.5975 6.69105 25.3219 6.17969C26.0534 5.66122 26.888 5.40199 27.8255 5.40199C28.0385 5.40199 28.2765 5.41264 28.5392 5.43395C28.8091 5.44815 29.0328 5.47301 29.2104 5.50852V9.05611C29.0471 8.99929 28.7878 8.94957 28.4327 8.90696C28.0847 8.85724 27.7473 8.83239 27.4206 8.83239C26.7175 8.83239 26.0854 8.98508 25.5243 9.29048C24.9703 9.58878 24.5336 10.0043 24.214 10.5369C23.8944 11.0696 23.7346 11.6839 23.7346 12.38V22H19.878ZM38.343 22.3196C36.7024 22.3196 35.2855 21.9787 34.0923 21.2969C32.9063 20.608 31.9936 19.6349 31.3544 18.3778C30.7152 17.1136 30.3956 15.6257 30.3956 13.9141C30.3956 12.2308 30.7152 10.7536 31.3544 9.48224C32.0007 8.20383 32.9027 7.20952 34.0604 6.49929C35.218 5.78196 36.5781 5.4233 38.1406 5.4233C39.1491 5.4233 40.1009 5.58665 40.9957 5.91335C41.8977 6.23295 42.6932 6.73011 43.3821 7.40483C44.0781 8.07955 44.625 8.93892 45.0227 9.98295C45.4205 11.0199 45.6193 12.2557 45.6193 13.6903V14.8729H32.2067V12.2734H41.9226C41.9155 11.5348 41.7557 10.8778 41.4432 10.3026C41.1307 9.72017 40.6939 9.26207 40.1328 8.92827C39.5788 8.59446 38.9325 8.42756 38.1939 8.42756C37.4055 8.42756 36.7131 8.61932 36.1165 9.00284C35.5199 9.37926 35.0547 9.87642 34.7209 10.4943C34.3942 11.1051 34.2273 11.7763 34.2202 12.5078V14.777C34.2202 15.7287 34.3942 16.5455 34.7422 17.2273C35.0902 17.902 35.5767 18.4205 36.2017 18.7827C36.8267 19.1378 37.5582 19.3153 38.3963 19.3153C38.9574 19.3153 39.4652 19.2372 39.9197 19.081C40.3743 18.9176 40.7685 18.6797 41.1023 18.3672C41.4361 18.0547 41.6882 17.6676 41.8587 17.206L45.4595 17.6108C45.2322 18.5625 44.799 19.3935 44.1598 20.1037C43.5277 20.8068 42.718 21.3537 41.7308 21.7443C40.7436 22.1278 39.6143 22.3196 38.343 22.3196ZM53.5907 22.3303C52.5538 22.3303 51.6199 22.1456 50.7889 21.7763C49.965 21.3999 49.3116 20.8459 48.8287 20.1143C48.3528 19.3828 48.1149 18.4808 48.1149 17.4084C48.1149 16.4851 48.2853 15.7216 48.6262 15.1179C48.9672 14.5142 49.4324 14.0312 50.0218 13.669C50.6113 13.3068 51.2754 13.0334 52.014 12.8487C52.7598 12.657 53.5304 12.5185 54.3258 12.4332C55.2846 12.3338 56.0623 12.245 56.6589 12.1669C57.2555 12.0817 57.6887 11.9538 57.9586 11.7834C58.2356 11.6058 58.3741 11.3324 58.3741 10.9631V10.8991C58.3741 10.0966 58.1362 9.47514 57.6603 9.0348C57.1845 8.59446 56.4991 8.37429 55.6042 8.37429C54.6596 8.37429 53.9103 8.58026 53.3564 8.99219C52.8095 9.40412 52.4402 9.89062 52.2484 10.4517L48.6475 9.94034C48.9316 8.94602 49.4004 8.11506 50.0538 7.44744C50.7072 6.77273 51.5062 6.26847 52.4508 5.93466C53.3954 5.59375 54.4395 5.4233 55.5829 5.4233C56.3713 5.4233 57.1561 5.51563 57.9373 5.70028C58.7186 5.88494 59.4324 6.19034 60.0787 6.61648C60.725 7.03551 61.2434 7.60724 61.6341 8.33168C62.0318 9.05611 62.2306 9.96165 62.2306 11.0483V22H58.5233V19.7521H58.3954C58.161 20.2067 57.8308 20.6328 57.4047 21.0305C56.9856 21.4212 56.4565 21.7372 55.8173 21.9787C55.1852 22.2131 54.443 22.3303 53.5907 22.3303ZM54.5922 19.4964C55.3663 19.4964 56.0375 19.3437 56.6056 19.0384C57.1738 18.7259 57.6106 18.3139 57.916 17.8026C58.2285 17.2912 58.3848 16.7337 58.3848 16.13V14.2017C58.264 14.3011 58.0581 14.3935 57.7669 14.4787C57.4828 14.5639 57.1632 14.6385 56.8081 14.7024C56.4529 14.7663 56.1014 14.8232 55.7534 14.8729C55.4054 14.9226 55.1035 14.9652 54.8478 15.0007C54.2725 15.0788 53.7576 15.2067 53.3031 15.3842C52.8485 15.5618 52.4899 15.8104 52.2271 16.13C51.9643 16.4425 51.8329 16.8473 51.8329 17.3445C51.8329 18.0547 52.0922 18.5909 52.6106 18.9531C53.1291 19.3153 53.7896 19.4964 54.5922 19.4964ZM66.1085 22V5.63636H69.7946V8.4169H69.9863C70.3272 7.4794 70.8919 6.74787 71.6802 6.2223C72.4686 5.68963 73.4096 5.4233 74.5034 5.4233C75.6113 5.4233 76.5453 5.69318 77.3052 6.23295C78.0723 6.76562 78.612 7.49361 78.9245 8.4169H79.095C79.4572 7.50781 80.068 6.78338 80.9274 6.24361C81.7939 5.69673 82.8201 5.4233 84.0062 5.4233C85.5119 5.4233 86.7406 5.89915 87.6923 6.85085C88.644 7.80256 89.1199 9.19105 89.1199 11.0163V22H85.2527V11.6129C85.2527 10.5973 84.9828 9.85511 84.443 9.38636C83.9032 8.91051 83.2427 8.67258 82.4615 8.67258C81.5311 8.67258 80.8031 8.96378 80.2775 9.54616C79.7591 10.1214 79.4998 10.8707 79.4998 11.794V22H75.7179V11.4531C75.7179 10.608 75.4622 9.93324 74.9508 9.42898C74.4466 8.92472 73.786 8.67258 72.9693 8.67258C72.4153 8.67258 71.911 8.81463 71.4565 9.09872C71.002 9.37571 70.6397 9.76989 70.3699 10.2812C70.1 10.7855 69.965 11.375 69.965 12.0497V22H66.1085ZM100.277 22.3196C98.636 22.3196 97.2191 21.9787 96.0259 21.2969C94.8398 20.608 93.9272 19.6349 93.288 18.3778C92.6488 17.1136 92.3292 15.6257 92.3292 13.9141C92.3292 12.2308 92.6488 10.7536 93.288 9.48224C93.9343 8.20383 94.8363 7.20952 95.994 6.49929C97.1516 5.78196 98.5117 5.4233 100.074 5.4233C101.083 5.4233 102.034 5.58665 102.929 5.91335C103.831 6.23295 104.627 6.73011 105.316 7.40483C106.012 8.07955 106.559 8.93892 106.956 9.98295C107.354 11.0199 107.553 12.2557 107.553 13.6903V14.8729H94.1403V12.2734H103.856C103.849 11.5348 103.689 10.8778 103.377 10.3026C103.064 9.72017 102.627 9.26207 102.066 8.92827C101.512 8.59446 100.866 8.42756 100.127 8.42756C99.3391 8.42756 98.6467 8.61932 98.0501 9.00284C97.4535 9.37926 96.9883 9.87642 96.6545 10.4943C96.3278 11.1051 96.1609 11.7763 96.1538 12.5078V14.777C96.1538 15.7287 96.3278 16.5455 96.6758 17.2273C97.0238 17.902 97.5103 18.4205 98.1353 18.7827C98.7603 19.1378 99.4918 19.3153 100.33 19.3153C100.891 19.3153 101.399 19.2372 101.853 19.081C102.308 18.9176 102.702 18.6797 103.036 18.3672C103.37 18.0547 103.622 17.6676 103.792 17.206L107.393 17.6108C107.166 18.5625 106.733 19.3935 106.093 20.1037C105.461 20.8068 104.652 21.3537 103.664 21.7443C102.677 22.1278 101.548 22.3196 100.277 22.3196ZM110.816 22V5.63636H114.555V8.36364H114.725C115.024 7.41903 115.535 6.69105 116.259 6.17969C116.991 5.66122 117.825 5.40199 118.763 5.40199C118.976 5.40199 119.214 5.41264 119.477 5.43395C119.747 5.44815 119.97 5.47301 120.148 5.50852V9.05611C119.985 8.99929 119.725 8.94957 119.37 8.90696C119.022 8.85724 118.685 8.83239 118.358 8.83239C117.655 8.83239 117.023 8.98508 116.462 9.29048C115.908 9.58878 115.471 10.0043 115.151 10.5369C114.832 11.0696 114.672 11.6839 114.672 12.38V22H110.816ZM7.05398 58.2876C5.76847 58.2876 4.6179 57.9574 3.60227 57.2969C2.58665 56.6364 1.78409 55.6776 1.1946 54.4205C0.605114 53.1634 0.310369 51.6364 0.310369 49.8395C0.310369 48.0213 0.608665 46.4872 1.20526 45.2372C1.80895 43.9801 2.62216 43.032 3.64489 42.3928C4.66761 41.7464 5.80753 41.4233 7.06463 41.4233C8.02344 41.4233 8.81179 41.5866 9.42969 41.9134C10.0476 42.233 10.5376 42.62 10.8999 43.0746C11.2621 43.522 11.5426 43.9446 11.7415 44.3423H11.9013V36.1818H15.7685V58H11.9759V55.4219H11.7415C11.5426 55.8196 11.255 56.2422 10.8786 56.6896C10.5021 57.13 10.005 57.5064 9.38707 57.8189C8.76918 58.1314 7.99148 58.2876 7.05398 58.2876ZM8.12997 55.1236C8.94673 55.1236 9.64276 54.9034 10.218 54.4631C10.7933 54.0156 11.2301 53.3942 11.5284 52.5987C11.8267 51.8033 11.9759 50.8764 11.9759 49.8182C11.9759 48.7599 11.8267 47.8402 11.5284 47.0589C11.2372 46.2777 10.804 45.6705 10.2287 45.2372C9.66051 44.804 8.96094 44.5874 8.12997 44.5874C7.2706 44.5874 6.55327 44.8111 5.97798 45.2585C5.4027 45.706 4.96946 46.3239 4.67827 47.1122C4.38707 47.9006 4.24148 48.8026 4.24148 49.8182C4.24148 50.8409 4.38707 51.7536 4.67827 52.5561C4.97656 53.3516 5.41335 53.9801 5.98864 54.4418C6.57102 54.8963 7.2848 55.1236 8.12997 55.1236ZM19.878 58V41.6364H23.6174V44.3636H23.7878C24.0861 43.419 24.5975 42.6911 25.3219 42.1797C26.0534 41.6612 26.888 41.402 27.8255 41.402C28.0385 41.402 28.2765 41.4126 28.5392 41.4339C28.8091 41.4482 29.0328 41.473 29.2104 41.5085V45.0561C29.0471 44.9993 28.7878 44.9496 28.4327 44.907C28.0847 44.8572 27.7473 44.8324 27.4206 44.8324C26.7175 44.8324 26.0854 44.9851 25.5243 45.2905C24.9703 45.5888 24.5336 46.0043 24.214 46.5369C23.8944 47.0696 23.7346 47.6839 23.7346 48.38V58H19.878ZM38.343 58.3196C36.7024 58.3196 35.2855 57.9787 34.0923 57.2969C32.9063 56.608 31.9936 55.6349 31.3544 54.3778C30.7152 53.1136 30.3956 51.6257 30.3956 49.9141C30.3956 48.2308 30.7152 46.7536 31.3544 45.4822C32.0007 44.2038 32.9027 43.2095 34.0604 42.4993C35.218 41.782 36.5781 41.4233 38.1406 41.4233C39.1491 41.4233 40.1009 41.5866 40.9957 41.9134C41.8977 42.233 42.6932 42.7301 43.3821 43.4048C44.0781 44.0795 44.625 44.9389 45.0227 45.983C45.4205 47.0199 45.6193 48.2557 45.6193 49.6903V50.8729H32.2067V48.2734H41.9226C41.9155 47.5348 41.7557 46.8778 41.4432 46.3026C41.1307 45.7202 40.6939 45.2621 40.1328 44.9283C39.5788 44.5945 38.9325 44.4276 38.1939 44.4276C37.4055 44.4276 36.7131 44.6193 36.1165 45.0028C35.5199 45.3793 35.0547 45.8764 34.7209 46.4943C34.3942 47.1051 34.2273 47.7763 34.2202 48.5078V50.777C34.2202 51.7287 34.3942 52.5455 34.7422 53.2273C35.0902 53.902 35.5767 54.4205 36.2017 54.7827C36.8267 55.1378 37.5582 55.3153 38.3963 55.3153C38.9574 55.3153 39.4652 55.2372 39.9197 55.081C40.3743 54.9176 40.7685 54.6797 41.1023 54.3672C41.4361 54.0547 41.6882 53.6676 41.8587 53.206L45.4595 53.6108C45.2322 54.5625 44.799 55.3935 44.1598 56.1037C43.5277 56.8068 42.718 57.3537 41.7308 57.7443C40.7436 58.1278 39.6143 58.3196 38.343 58.3196ZM53.5907 58.3303C52.5538 58.3303 51.6199 58.1456 50.7889 57.7763C49.965 57.3999 49.3116 56.8459 48.8287 56.1143C48.3528 55.3828 48.1149 54.4808 48.1149 53.4084C48.1149 52.4851 48.2853 51.7216 48.6262 51.1179C48.9672 50.5142 49.4324 50.0312 50.0218 49.669C50.6113 49.3068 51.2754 49.0334 52.014 48.8487C52.7598 48.657 53.5304 48.5185 54.3258 48.4332C55.2846 48.3338 56.0623 48.245 56.6589 48.1669C57.2555 48.0817 57.6887 47.9538 57.9586 47.7834C58.2356 47.6058 58.3741 47.3324 58.3741 46.9631V46.8991C58.3741 46.0966 58.1362 45.4751 57.6603 45.0348C57.1845 44.5945 56.4991 44.3743 55.6042 44.3743C54.6596 44.3743 53.9103 44.5803 53.3564 44.9922C52.8095 45.4041 52.4402 45.8906 52.2484 46.4517L48.6475 45.9403C48.9316 44.946 49.4004 44.1151 50.0538 43.4474C50.7072 42.7727 51.5062 42.2685 52.4508 41.9347C53.3954 41.5938 54.4395 41.4233 55.5829 41.4233C56.3713 41.4233 57.1561 41.5156 57.9373 41.7003C58.7186 41.8849 59.4324 42.1903 60.0787 42.6165C60.725 43.0355 61.2434 43.6072 61.6341 44.3317C62.0318 45.0561 62.2306 45.9616 62.2306 47.0483V58H58.5233V55.7521H58.3954C58.161 56.2067 57.8308 56.6328 57.4047 57.0305C56.9856 57.4212 56.4565 57.7372 55.8173 57.9787C55.1852 58.2131 54.443 58.3303 53.5907 58.3303ZM54.5922 55.4964C55.3663 55.4964 56.0375 55.3437 56.6056 55.0384C57.1738 54.7259 57.6106 54.3139 57.916 53.8026C58.2285 53.2912 58.3848 52.7337 58.3848 52.13V50.2017C58.264 50.3011 58.0581 50.3935 57.7669 50.4787C57.4828 50.5639 57.1632 50.6385 56.8081 50.7024C56.4529 50.7663 56.1014 50.8232 55.7534 50.8729C55.4054 50.9226 55.1035 50.9652 54.8478 51.0007C54.2725 51.0788 53.7576 51.2067 53.3031 51.3842C52.8485 51.5618 52.4899 51.8104 52.2271 52.13C51.9643 52.4425 51.8329 52.8473 51.8329 53.3445C51.8329 54.0547 52.0922 54.5909 52.6106 54.9531C53.1291 55.3153 53.7896 55.4964 54.5922 55.4964ZM66.1085 58V41.6364H69.7946V44.4169H69.9863C70.3272 43.4794 70.8919 42.7479 71.6802 42.2223C72.4686 41.6896 73.4096 41.4233 74.5034 41.4233C75.6113 41.4233 76.5453 41.6932 77.3052 42.233C78.0723 42.7656 78.612 43.4936 78.9245 44.4169H79.095C79.4572 43.5078 80.068 42.7834 80.9274 42.2436C81.7939 41.6967 82.8201 41.4233 84.0062 41.4233C85.5119 41.4233 86.7406 41.8991 87.6923 42.8509C88.644 43.8026 89.1199 45.1911 89.1199 47.0163V58H85.2527V47.6129C85.2527 46.5973 84.9828 45.8551 84.443 45.3864C83.9032 44.9105 83.2427 44.6726 82.4615 44.6726C81.5311 44.6726 80.8031 44.9638 80.2775 45.5462C79.7591 46.1214 79.4998 46.8707 79.4998 47.794V58H75.7179V47.4531C75.7179 46.608 75.4622 45.9332 74.9508 45.429C74.4466 44.9247 73.786 44.6726 72.9693 44.6726C72.4153 44.6726 71.911 44.8146 71.4565 45.0987C71.002 45.3757 70.6397 45.7699 70.3699 46.2812C70.1 46.7855 69.965 47.375 69.965 48.0497V58H66.1085ZM105.124 58V61.0788H91.0295V58H105.124ZM119.157 58V61.0788H105.063V58H119.157Z" fill="black"/>
</svg>
